<svg xmlns="http://www.w3.org/2000/svg" xmlns:xlink="http://www.w3.org/1999/xlink" width="280" height="280" viewBox="0 0 280 280">
  <defs>
    <circle id="station-app-b" cx="73.5" cy="73.5" r="73.5"/>
    <filter id="station-app-a" width="223.8%" height="223.8%" x="-61.9%" y="-44.2%" filterUnits="objectBoundingBox">
      <feOffset dy="26" in="SourceAlpha" result="shadowOffsetOuter1"/>
      <feGaussianBlur in="shadowOffsetOuter1" result="shadowBlurOuter1" stdDeviation="26"/>
      <feColorMatrix in="shadowBlurOuter1" values="0 0 0 0 0   0 0 0 0 0   0 0 0 0 0  0 0 0 0.13074615 0"/>
    </filter>
    <linearGradient id="station-app-c" x1="50%" x2="50%" y1="100%" y2="0%">
      <stop offset="0%" stop-color="#1410B8"/>
      <stop offset="100%" stop-color="#4ED8E4"/>
    </linearGradient>
  </defs>
  <g fill="none" fill-rule="evenodd" transform="translate(67 67)">
    <use fill="#000" filter="url(#station-app-a)" xlink:href="#station-app-b"/>
    <use fill="#FFF" xlink:href="#station-app-b"/>
    <path fill="url(#station-app-c)" d="M73.5,92.372549 C58.3771441,92.372549 46.1176471,80.0823265 46.1176471,64.9215686 C46.1176471,49.7608108 58.3771441,37.4705882 73.5,37.4705882 C88.6228559,37.4705882 100.882353,49.7608108 100.882353,64.9215686 C100.882353,80.0823265 88.6228559,92.372549 73.5,92.372549 Z M73.5,84.1372549 C84.0859992,84.1372549 92.6676471,75.5340991 92.6676471,64.9215686 C92.6676471,54.3090381 84.0859992,45.7058824 73.5,45.7058824 C62.9140008,45.7058824 54.3323529,54.3090381 54.3323529,64.9215686 C54.3323529,75.5340991 62.9140008,84.1372549 73.5,84.1372549 Z M52.9632353,102.666667 L94.0367647,102.666667 L94.0367647,109.529412 L52.9632353,109.529412 L52.9632353,102.666667 Z"/>
  </g>
</svg>
